<svg xmlns="http://www.w3.org/2000/svg" width="21.1" height="18.967" viewBox="0 0 21.1 18.967">
  <g id="speech-bubble" transform="translate(0.05 0.05)">
    <path id="Path_8862" data-name="Path 8862" d="M246.423,100a.423.423,0,1,0,.423.423A.423.423,0,0,0,246.423,100Zm0,0" transform="translate(-235.923 -95.904)" fill="#128488" stroke="#128488" stroke-width="0.1"/>
    <path id="Path_8863" data-name="Path 8863" d="M80.423,260.846a.423.423,0,1,0-.423-.423A.423.423,0,0,0,80.423,260.846Zm0,0" transform="translate(-76.615 -249.351)" fill="#128488" stroke="#128488" stroke-width="0.1"/>
    <path id="Path_8864" data-name="Path 8864" d="M13.781,0C10.089,0,7.058,2.546,6.824,5.753,3.307,5.929,0,8.465,0,11.895a5.731,5.731,0,0,0,1.6,3.922,2.494,2.494,0,0,1-.659,2.35.41.41,0,0,0,.29.7A4.524,4.524,0,0,0,4.365,17.6a9.347,9.347,0,0,0,2.854.447c3.692,0,6.722-2.545,6.957-5.751a9.223,9.223,0,0,0,2.459-.438,4.524,4.524,0,0,0,3.135,1.267.41.41,0,0,0,.29-.7,2.494,2.494,0,0,1-.659-2.35A5.731,5.731,0,0,0,21,6.152C21,2.589,17.438,0,13.781,0ZM7.219,17.227a8.291,8.291,0,0,1-2.81-.484.41.41,0,0,0-.454.1,3.7,3.7,0,0,1-1.841,1.092,3.317,3.317,0,0,0,.25-2.441.409.409,0,0,0-.1-.173A4.929,4.929,0,0,1,.82,11.895c0-2.89,2.93-5.332,6.4-5.332,3.275,0,6.152,2.277,6.152,5.332C13.371,14.835,10.611,17.227,7.219,17.227ZM18.737,9.582a.411.411,0,0,0-.1.173,3.317,3.317,0,0,0,.25,2.441A3.7,3.7,0,0,1,17.046,11.1a.41.41,0,0,0-.454-.1,8.08,8.08,0,0,1-2.416.474,5.871,5.871,0,0,0-2.216-4.091h5.35a.41.41,0,1,0,0-.82H10.7a7.65,7.65,0,0,0-3.052-.808C7.882,3,10.543.82,13.781.82c3.468,0,6.4,2.442,6.4,5.332A4.929,4.929,0,0,1,18.737,9.582Zm0,0" fill="#128488" stroke="#128488" stroke-width="0.1"/>
    <path id="Path_8865" data-name="Path 8865" d="M125.754,260h-5.331a.423.423,0,0,0,0,.846h5.331a.423.423,0,0,0,0-.846Zm0,0" transform="translate(-115.14 -249.351)" fill="#128488" stroke="#128488" stroke-width="0.1"/>
    <path id="Path_8866" data-name="Path 8866" d="M87.446,320H80.423a.423.423,0,0,0,0,.846h7.023a.423.423,0,0,0,0-.846Zm0,0" transform="translate(-76.778 -306.894)" fill="#128488" stroke="#128488" stroke-width="0.1"/>
    <path id="Path_8867" data-name="Path 8867" d="M291.754,100h-5.331a.423.423,0,1,0,0,.846h5.331a.423.423,0,1,0,0-.846Zm0,0" transform="translate(-274.417 -95.904)" fill="#128488" stroke="#128488" stroke-width="0.1"/>
  </g>
</svg>
