<svg width="26" height="26" viewBox="0 0 26 26" fill="none" xmlns="http://www.w3.org/2000/svg">
<path d="M9.43258 21.3493L19.5 11.2819L14.7182 6.50009L4.65075 16.5675C4.51215 16.7063 4.4137 16.88 4.36583 17.0702L3.25 22.7501L8.92883 21.6343C9.1195 21.5866 9.29392 21.488 9.43258 21.3493ZM22.75 8.03193C23.1562 7.62562 23.3844 7.07462 23.3844 6.50009C23.3844 5.92557 23.1562 5.37457 22.75 4.96826L21.0318 3.25009C20.6255 2.84391 20.0745 2.61572 19.5 2.61572C18.9255 2.61572 18.3745 2.84391 17.9682 3.25009L16.25 4.96826L21.0318 9.75009L22.75 8.03193Z" fill="white"/>
</svg>
