<svg id="plus_1_" data-name="plus (1)" xmlns="http://www.w3.org/2000/svg" width="21" height="21" viewBox="0 0 21 21">
  <path id="Path_8855" data-name="Path 8855" d="M10.5,21A10.5,10.5,0,1,1,21,10.5,10.512,10.512,0,0,1,10.5,21Zm0-19.687A9.188,9.188,0,1,0,19.688,10.5,9.2,9.2,0,0,0,10.5,1.313Zm0,0" fill="#128488"/>
  <path id="Path_8856" data-name="Path 8856" d="M137.958,241.328h-9.294a.664.664,0,0,1,0-1.328h9.294a.664.664,0,1,1,0,1.328Zm0,0" transform="translate(-122.811 -230.164)" fill="#128488"/>
  <path id="Path_8857" data-name="Path 8857" d="M240.664,138.621a.664.664,0,0,1-.664-.664v-9.294a.664.664,0,0,1,1.328,0v9.294A.664.664,0,0,1,240.664,138.621Zm0,0" transform="translate(-230.164 -122.811)" fill="#128488"/>
</svg>
