<svg xmlns="http://www.w3.org/2000/svg" width="20.998" height="21" viewBox="0 0 20.998 21">
  <g id="delivery" transform="translate(-0.03)">
    <circle id="Ellipse_279" data-name="Ellipse 279" cx="1.383" cy="1.383" r="1.383" transform="translate(3.142 3.112)" fill="#575756"/>
    <path id="Path_8847" data-name="Path 8847" d="M7.731,7.7a4.511,4.511,0,1,0-7.7-3.19A4.482,4.482,0,0,0,1.351,7.7l3.19,3.19ZM1.876,4.511A2.666,2.666,0,1,1,4.541,7.177,2.669,2.669,0,0,1,1.876,4.511Z" fill="#575756"/>
    <path id="Path_8848" data-name="Path 8848" d="M355.3,318.913a3.281,3.281,0,0,0-2.32,5.6l2.32,2.32,2.32-2.32a3.281,3.281,0,0,0-2.32-5.6Z" transform="translate(-337.556 -305.834)" fill="#575756"/>
    <path id="Path_8849" data-name="Path 8849" d="M96.265,236.993a2.732,2.732,0,0,1,2.729-2.729h2.283a2.451,2.451,0,1,0,0-4.9H98.89v1.23h2.387a1.221,1.221,0,0,1,0,2.442H98.994a3.959,3.959,0,0,0,0,7.919h6.867v-1.23H98.994A2.732,2.732,0,0,1,96.265,236.993Z" transform="translate(-91.109 -219.955)" fill="#575756"/>
  </g>
</svg>
