<svg xmlns="http://www.w3.org/2000/svg" width="21.1" height="21.1" viewBox="0 0 21.1 21.1">
  <g id="settings" transform="translate(0.05 0.05)">
    <g id="Group_3678" data-name="Group 3678" transform="translate(0 0)">
      <path id="Path_8868" data-name="Path 8868" d="M11.48,21H9.52a1.31,1.31,0,0,1-1.3-1.155L8.011,18.2a8.269,8.269,0,0,1-1.2-.5L5.5,18.721a1.305,1.305,0,0,1-1.737-.11L2.386,17.233A1.3,1.3,0,0,1,2.279,15.5L3.3,14.193a8.078,8.078,0,0,1-.5-1.2l-1.645-.209A1.313,1.313,0,0,1,0,11.48V9.52a1.31,1.31,0,0,1,1.155-1.3L2.8,8.011a8.269,8.269,0,0,1,.5-1.2L2.279,5.5A1.3,1.3,0,0,1,2.39,3.763L3.769,2.385A1.3,1.3,0,0,1,5.5,2.278L6.807,3.3a8.239,8.239,0,0,1,1.2-.5L8.22,1.152A1.31,1.31,0,0,1,9.52,0h1.96a1.311,1.311,0,0,1,1.3,1.155L12.989,2.8a8.239,8.239,0,0,1,1.2.5L15.5,2.278a1.3,1.3,0,0,1,1.737.111l1.378,1.378A1.3,1.3,0,0,1,18.722,5.5L17.706,6.807a8.078,8.078,0,0,1,.5,1.2l1.645.209A1.312,1.312,0,0,1,21,9.52v1.96a1.311,1.311,0,0,1-1.155,1.3l-1.642.209a8.269,8.269,0,0,1-.5,1.2L18.722,15.5a1.3,1.3,0,0,1-.111,1.737l-1.378,1.378a1.3,1.3,0,0,1-1.732.107L14.192,17.7a8.078,8.078,0,0,1-1.2.5l-.209,1.645A1.312,1.312,0,0,1,11.48,21ZM6.764,16.747a.444.444,0,0,1,.214.055,7.344,7.344,0,0,0,1.552.644.437.437,0,0,1,.313.365l.245,1.925a.442.442,0,0,0,.432.389h1.96a.441.441,0,0,0,.431-.384l.246-1.929a.437.437,0,0,1,.313-.365,7.344,7.344,0,0,0,1.552-.644.437.437,0,0,1,.481.037l1.531,1.19a.43.43,0,0,0,.573-.03L18,16.614a.433.433,0,0,0,.034-.577L16.839,14.5a.437.437,0,0,1-.037-.481,7.344,7.344,0,0,0,.644-1.552.437.437,0,0,1,.365-.313l1.925-.245a.444.444,0,0,0,.389-.433V9.52a.441.441,0,0,0-.384-.431l-1.929-.246a.437.437,0,0,1-.365-.313A7.344,7.344,0,0,0,16.8,6.977.435.435,0,0,1,16.84,6.5l1.19-1.531A.429.429,0,0,0,18,4.393L16.614,3.006a.431.431,0,0,0-.577-.034l-1.531,1.19a.438.438,0,0,1-.482.037,7.314,7.314,0,0,0-1.552-.644.437.437,0,0,1-.313-.365l-.245-1.925A.444.444,0,0,0,11.48.875H9.52a.441.441,0,0,0-.431.384L8.843,3.188a.439.439,0,0,1-.313.366A7.311,7.311,0,0,0,6.977,4.2.438.438,0,0,1,6.5,4.161L4.964,2.971A.429.429,0,0,0,4.392,3L3,4.387a.433.433,0,0,0-.034.577L4.161,6.5a.437.437,0,0,1,.037.481A7.3,7.3,0,0,0,3.553,8.53a.437.437,0,0,1-.365.313l-1.925.245a.442.442,0,0,0-.388.432v1.96a.441.441,0,0,0,.384.431l1.928.246a.437.437,0,0,1,.365.313A7.344,7.344,0,0,0,4.2,14.023a.435.435,0,0,1-.037.481L2.97,16.035A.429.429,0,0,0,3,16.608l1.387,1.387a.433.433,0,0,0,.577.034l1.531-1.19a.451.451,0,0,1,.27-.091Z" transform="translate(0 0)" fill="#128488" stroke="#128488" stroke-width="0.1"/>
    </g>
    <g id="Group_3679" data-name="Group 3679" transform="translate(6.082 6.082)">
      <path id="Path_8869" data-name="Path 8869" d="M11.418,15.836a4.418,4.418,0,1,1,4.418-4.418A4.423,4.423,0,0,1,11.418,15.836Zm0-7.952a3.534,3.534,0,1,0,3.534,3.534A3.538,3.538,0,0,0,11.418,7.884Z" transform="translate(-7 -7)" fill="#128488" stroke="#128488" stroke-width="0.1"/>
    </g>
  </g>
</svg>
