<svg id="Group_1052" data-name="Group 1052" xmlns="http://www.w3.org/2000/svg" width="16" height="16" viewBox="0 0 16 16">
  <path id="Path_1903" data-name="Path 1903" d="M0,0H16V16H0Z" fill="none"/>
  <path id="Path_1904" data-name="Path 1904" d="M3,12.667H4.333V14h8V3.333h-8V4.667H3v-2A.667.667,0,0,1,3.667,2H13a.667.667,0,0,1,.667.667v12a.667.667,0,0,1-.667.667H3.667A.667.667,0,0,1,3,14.667ZM4.333,8H9V9.333H4.333v2L1,8.667,4.333,6Z" transform="translate(-0.333 -0.667)" fill="#128488"/>
</svg>
