<svg id="Group_3487" data-name="Group 3487" xmlns="http://www.w3.org/2000/svg" width="16" height="16" viewBox="0 0 16 16">
  <path id="Path_8646" data-name="Path 8646" d="M0,0H16V16H0Z" fill="none"/>
  <path id="Path_8647" data-name="Path 8647" d="M7.244,8.121a7.037,7.037,0,0,0,2.635,2.635l.589-.825a.667.667,0,0,1,.863-.2,7.615,7.615,0,0,0,3.055.909.667.667,0,0,1,.614.665v2.975a.667.667,0,0,1-.6.663A10.339,10.339,0,0,1,3.055,3.6.667.667,0,0,1,3.718,3H6.693a.667.667,0,0,1,.665.614,7.615,7.615,0,0,0,.909,3.055.667.667,0,0,1-.2.863l-.825.589ZM5.563,7.683l1.267-.9A8.94,8.94,0,0,1,6.1,4.333H4.34c0,.111-.006.222-.006.333a9,9,0,0,0,9,9c.111,0,.223,0,.333-.007V11.9a8.94,8.94,0,0,1-2.445-.731l-.9,1.267a8.3,8.3,0,0,1-1.059-.5l-.039-.022A8.371,8.371,0,0,1,6.085,8.781l-.022-.039a8.3,8.3,0,0,1-.5-1.059Z" transform="translate(-1 -1)" fill="#128488"/>
</svg>
